# xmcd CD database file
#
# Track frame offsets:
#	150
#	11833
#	31747
#	53446
#	71229
#	96720
#	111607
#	131963
#	145841
#	170246
#	189065
#	206336
#	221085
#	241346
#	258522
#	275025
#	291231
#	312149
#	325822
#
# Disc length: 4617 seconds
#
# Revision: 1
# Processed by: cddbd v1.5.2PL0 Copyright (c) Steve Scherf et al.
# Submitted via: CDex 1.51
#
DISCID=30120713
DTITLE=Пугачева - Лучшие песни 2
DYEAR=2005
DGENRE=Pop
TTITLE0=Живи спокойно страна
TTITLE1=Айсберг
TTITLE2=Позови меня с собой 
TTITLE3=Голубь сизокрылый
TTITLE4=Три счастливых дня
TTITLE5=Речной трамвайчик
TTITLE6=Арлекино
TTITLE7=Холодно
TTITLE8=Маэстро
TTITLE9=Мадам Брошкина
TTITLE10=Балалайка
TTITLE11=Миллениум
TTITLE12=Девочка секонд хэнд
TTITLE13=Надо же
TTITLE14=Песенка про меня
TTITLE15=Будь или не будь
TTITLE16=Ухожу
TTITLE17=Все могут короли
TTITLE18=Жди и помни меня
EXTD=YEAR: 2005
EXTT0=
EXTT1=
EXTT2=
EXTT3=
EXTT4=
EXTT5=
EXTT6=
EXTT7=
EXTT8=
EXTT9=
EXTT10=
EXTT11=
EXTT12=
EXTT13=
EXTT14=
EXTT15=
EXTT16=
EXTT17=
EXTT18=
PLAYORDER=
